<svg width="365" height="51" viewBox="0 0 365 51" fill="none" xmlns="http://www.w3.org/2000/svg">
<rect width="85" height="50" rx="25" fill="#FAAD14"/>
<path d="M51.98 9.06071H51.9742C48.5083 9.25531 44.7406 11.3114 41.6224 14.8094L41.3572 15.1039L41.1521 15.3515C40.1037 16.6067 39.1801 17.9692 38.3935 19.4169L38.3246 19.5429L38.0067 20.1597C37.8239 20.5152 37.65 20.8773 37.4866 21.2467L37.4852 21.2511C37.0106 22.308 36.607 23.3985 36.278 24.5137L36.1769 24.8521L36.0788 25.2301C34.9889 29.376 35.0489 33.4827 36.2648 36.7422C37.2865 39.4809 39.0262 41.404 41.2576 42.3737C44.2208 43.6636 47.7653 43.1275 51.145 41.0596C54.5201 38.9944 57.6565 35.4378 59.7065 30.8675C62.1191 25.4898 62.5349 19.6928 60.9269 15.372C59.9057 12.6355 58.1682 10.7144 55.9385 9.74341C54.685 9.20698 53.3315 8.97379 51.98 9.06071Z" fill="white"/>
<path d="M41.9679 32.7545C41.1751 31.0666 41.1683 28.8011 41.5648 26.6124L41.6254 26.2797C41.8093 25.4072 42.0797 24.5258 42.4464 23.661C42.5544 23.4038 42.667 23.1507 42.7843 22.9061L42.957 22.5588C43.563 21.3734 44.2839 20.3078 45.0869 19.3982L45.3245 19.1298C45.9491 18.4594 46.6223 17.8862 47.3276 17.4283C49.3428 16.1207 51.5433 15.7701 53.5289 16.4453C54.9704 16.9326 56.1035 17.9911 56.8131 19.5013C57.9585 21.9422 57.849 25.2863 56.5138 28.4481C55.4375 31.0023 53.6975 33.1624 51.6158 34.5256C50.3945 35.3272 48.955 35.9482 47.7456 36.073C46.8818 36.162 46.0392 36.0766 45.2521 35.8105C43.8106 35.3232 42.6776 34.2646 41.9679 32.7545Z" fill="#BBFD3B"/>
<path d="M41.9679 32.7545C41.1751 31.0666 41.1683 28.8011 41.5648 26.6124L41.6254 26.2797C41.8093 25.4072 42.0797 24.5258 42.4464 23.661C42.5544 23.4038 42.667 23.1507 42.7843 22.9061L42.957 22.5588C43.563 21.3734 44.2839 20.3078 45.0869 19.3982L45.3245 19.1298C45.9491 18.4594 46.6223 17.8862 47.3276 17.4283C49.3428 16.1207 51.5433 15.7701 53.5289 16.4453C54.9704 16.9326 56.1035 17.9911 56.8131 19.5013C57.9585 21.9422 57.849 25.2863 56.5138 28.4481C55.4375 31.0023 53.6975 33.1624 51.6158 34.5256C50.3945 35.3272 48.955 35.9482 47.7456 36.073C46.8818 36.162 46.0392 36.0766 45.2521 35.8105C43.8106 35.3232 42.6776 34.2646 41.9679 32.7545Z" stroke="#00000E" stroke-width="3.3583" stroke-linejoin="round"/>
<path d="M48.6525 5.35879C49.8246 5.24626 51.0053 5.28685 52.1662 5.48281L52.175 5.48379L52.6584 5.57461L52.6643 5.57559L52.6711 5.57656L52.6789 5.57852L52.677 5.57949C53.4506 5.74833 54.3558 6.05886 55.1545 6.39102C55.9211 6.70986 56.6235 7.06421 57.0334 7.34414C57.7811 7.74655 58.9728 8.66936 60.1184 9.87441C61.194 11.006 62.2604 12.4191 62.8869 13.932L63.007 14.2357L63.008 14.2406L63.1682 14.6889L63.1711 14.6957C63.9569 17.0213 64.255 19.6842 64.0637 22.4281C63.8538 25.4476 63.0426 28.5891 61.7268 31.5229C59.5671 36.3395 56.2073 40.3494 52.218 42.7777C49.9531 44.1567 48.1405 44.9065 45.8283 45.0395L45.8293 45.0404H45.8166L45.8107 45.0424C45.7987 45.0437 45.781 45.0451 45.76 45.0473C45.7175 45.0517 45.6589 45.0586 45.5969 45.0648C45.4779 45.0768 45.3279 45.0903 45.2512 45.0941C45.1338 45.0999 43.5463 45.1863 42.4504 44.9887C41.9472 44.8979 41.3485 44.7264 40.8859 44.5805C40.6526 44.5069 40.4487 44.4388 40.3039 44.3891C40.2317 44.3643 40.174 44.3427 40.134 44.3285C40.1141 44.3215 40.0977 44.3167 40.0871 44.3129C40.0821 44.3111 40.0781 44.309 40.0754 44.308L40.0744 44.3061C39.8086 44.2121 39.4717 44.0695 39.2082 43.9535C39.0749 43.8948 38.9563 43.8415 38.8723 43.8031C38.8305 43.7841 38.7959 43.769 38.7727 43.7582C38.7614 43.753 38.7524 43.7493 38.7463 43.7465L38.7424 43.7436L38.7395 43.7426H38.7365L38.7355 43.7406C37.8566 43.3457 37.1173 42.7991 36.173 42.1332L36.1652 42.1283L35.6301 41.7328L35.6223 41.727C34.363 40.7432 33.282 39.5347 32.4318 38.1596L32.423 38.1439L32.4133 38.1264C31.1598 36.0414 30.8327 34.1444 30.5773 32.6332C30.0234 29.3484 30.4245 26.7525 30.6828 25.1449L30.7873 24.5424C30.8823 24.0365 30.9947 23.5331 31.1213 23.0346L31.1066 23.0307L31.2863 22.4027L31.5803 21.308L31.6115 21.3236C31.9951 20.1249 32.4555 18.9528 32.9895 17.8168V17.8139L33.0295 17.7309C33.0374 17.7143 33.0447 17.6964 33.0529 17.6791L33.0402 17.6742L33.4113 16.9389L33.7688 16.2016L33.7863 16.2094C34.4465 14.9651 35.2137 13.7848 36.0783 12.683L36.0441 12.6645L36.6984 11.9213L37.1701 11.3607L37.1887 11.3695C38.3041 10.1529 39.9726 8.35672 42.7404 6.99063L42.7482 6.98672L43.4338 6.66738L43.4426 6.66348C45.0974 5.93994 46.8569 5.50063 48.6525 5.35879ZM51.9006 9.14688H51.8898L51.8908 9.14785C48.5643 9.33491 44.8913 11.3168 41.8225 14.7592L41.8205 14.7611L41.5666 15.0434L41.3615 15.2904L41.3605 15.2914C40.3298 16.5254 39.4205 17.8654 38.6467 19.2895L38.5813 19.4066L38.5822 19.4086L38.2648 20.0258C38.0857 20.3743 37.9148 20.7291 37.7551 21.0902L37.7522 21.0961C37.2852 22.1359 36.8884 23.2106 36.5647 24.308L36.4631 24.6479L36.3684 25.0111C35.2949 29.0952 35.3624 33.1157 36.5422 36.2787C37.5318 38.9307 39.2026 40.7589 41.3156 41.6771L41.5803 41.7865C44.3334 42.8662 47.626 42.3472 50.8264 40.3891C54.123 38.3717 57.2085 34.8829 59.2287 30.3793C61.6084 25.075 61.9995 19.3909 60.4377 15.1938C59.4487 12.5436 57.781 10.7169 55.6691 9.79727C54.4752 9.28693 53.1865 9.06419 51.9006 9.14688Z" fill="#00000E"/>
<path d="M29.2844 9.598C29.1767 9.81524 29.2631 10.0787 29.4786 10.1899L47.5454 19.5121C47.9175 19.7041 48.3742 19.591 48.6137 19.2476C48.9101 18.8225 48.752 18.2328 48.2827 18.0131L29.8705 9.39305C29.6519 9.2907 29.3916 9.38173 29.2844 9.598Z" fill="#00000E" stroke="#00000E" stroke-width="0.671661"/>
<path d="M20.7394 11.0216C20.8556 10.812 21.1179 10.7338 21.3299 10.8454L47.0778 24.4047C47.4647 24.6085 47.6036 25.0936 47.3833 25.4713C47.1727 25.8322 46.7122 25.9585 46.3469 25.7556L20.9106 11.6202C20.6981 11.5021 20.6215 11.2342 20.7394 11.0216Z" fill="#00000E"/>
<path d="M47.2339 24.1075C47.79 24.4003 47.9901 25.0981 47.6734 25.6409C47.3707 26.1594 46.709 26.3405 46.1842 26.049L20.7475 11.9132C20.3733 11.7051 20.238 11.2336 20.4454 10.8591C20.6501 10.4898 21.1127 10.3518 21.4863 10.5485L47.2339 24.1075ZM21.033 11.1849C21.0053 11.2353 21.0233 11.2989 21.0737 11.3269L46.5095 25.4623C46.7149 25.5764 46.9743 25.5051 47.0929 25.3022C47.2169 25.0897 47.1386 24.8168 46.9209 24.7022L21.1738 11.1424C21.1234 11.1158 21.0606 11.1351 21.033 11.1849Z" fill="#00000E"/>
<path d="M23.7429 18.7811C23.8756 18.5865 24.1374 18.5296 24.339 18.6516L42.7682 29.8091C43.1362 30.0318 43.2767 30.4963 43.0939 30.8857C42.8764 31.349 42.2989 31.5121 41.8711 31.2311L23.8658 19.4016C23.6586 19.2654 23.6033 18.9859 23.7429 18.7811Z" fill="#00000E" stroke="#00000E" stroke-width="0.671661"/>
<path d="M49.0213 32.8228L49.6078 33.1524C50.3868 33.5903 50.5694 34.6321 49.9856 35.3088L49.9136 35.3922C49.8731 35.4392 49.826 35.4801 49.7739 35.5137L49.1806 35.8963C48.8105 36.135 48.9358 36.7091 49.3763 36.7091C49.4702 36.7091 49.606 36.6786 49.6818 36.6231C52.0464 34.8907 53.5195 33.8424 55.4385 32.204C56.8522 30.997 58.4249 26.3784 58.5416 23.3794C58.5639 22.8088 58.5242 22.3066 58.4477 21.8691C58.2695 20.8492 57.3241 20.571 57.2195 21.6011C57.1381 22.403 56.1878 23.3302 55.4852 22.9353L53.0479 21.5653C52.4518 21.2303 51.697 21.4419 51.362 22.038C51.027 22.6341 51.2386 23.3889 51.8347 23.7239L52.9355 24.3426C53.472 24.6442 53.6624 25.3235 53.3609 25.8599C53.0594 26.3964 52.3801 26.5868 51.8436 26.2853L49.9441 25.2177C49.2884 24.8491 48.4582 25.0819 48.0896 25.7376C47.7211 26.3932 47.9539 27.2235 48.6095 27.592L52.4517 29.7516C52.8928 29.9995 53.0494 30.5581 52.8015 30.9992C52.5536 31.4403 51.995 31.5968 51.5539 31.3489L50.2589 30.621C49.6509 30.2793 48.881 30.4951 48.5392 31.1031C48.1975 31.7111 48.4133 32.481 49.0213 32.8228Z" fill="#00000E"/>
<path d="M362.082 12.0156C362.319 12.0156 362.54 12.0304 362.747 12.0599C362.954 12.0599 363.175 12.0894 363.411 12.1485C363.825 12.2075 364.12 12.3847 364.297 12.68C364.474 12.9752 364.533 13.3148 364.474 13.6986L363.765 17.9504C363.706 18.3047 363.544 18.5704 363.278 18.7476C363.042 18.8952 362.747 18.9395 362.392 18.8805C362.215 18.8214 362.038 18.7919 361.861 18.7919C361.684 18.7624 361.462 18.7476 361.197 18.7476C359.602 18.7476 358.377 19.3233 357.521 20.4749C356.694 21.6264 356.059 23.2799 355.616 25.4353V35.5332C355.616 36.5076 355.336 37.2753 354.775 37.8363C354.214 38.4268 353.446 38.722 352.472 38.722H351.807C350.863 38.722 350.095 38.4268 349.504 37.8363C348.943 37.2753 348.663 36.5076 348.663 35.5332V15.8245C348.663 14.9092 348.943 14.171 349.504 13.61C350.065 13.049 350.789 12.7685 351.675 12.7685H352.206C352.974 12.7685 353.608 13.0048 354.11 13.4772C354.642 13.9201 354.952 14.5106 355.04 15.2487L355.306 17.8175C355.926 15.9869 356.827 14.5696 358.008 13.5657C359.218 12.5323 360.577 12.0156 362.082 12.0156Z" fill="#FAAD14"/>
<path d="M331.08 11.9727C332.999 11.9727 334.727 12.2974 336.262 12.947C337.827 13.5671 339.126 14.4676 340.159 15.6487C341.222 16.8002 342.034 18.2322 342.595 19.9447C343.186 21.6572 343.481 23.5912 343.481 25.7466C343.481 27.7839 343.186 29.6588 342.595 31.3713C342.034 33.0543 341.222 34.5011 340.159 35.7117C339.126 36.8927 337.827 37.808 336.262 38.4576C334.727 39.1367 332.985 39.4763 331.036 39.4763C329.087 39.4763 327.345 39.1662 325.81 38.5462C324.304 37.9261 323.005 37.0256 321.912 35.8446C320.849 34.6635 320.023 33.2315 319.432 31.5485C318.871 29.836 318.591 27.902 318.591 25.7466C318.591 23.6503 318.871 21.7606 319.432 20.0776C320.023 18.3946 320.849 16.9626 321.912 15.7815C322.975 14.571 324.274 13.6409 325.81 12.9913C327.375 12.3122 329.131 11.9727 331.08 11.9727ZM331.08 17.1545C329.338 17.1545 328.024 17.8336 327.138 19.1918C326.282 20.55 325.854 22.7349 325.854 25.7466C325.854 28.7583 326.282 30.9432 327.138 32.3014C327.995 33.6301 329.294 34.2944 331.036 34.2944C332.748 34.2944 334.033 33.6153 334.889 32.2571C335.775 30.8694 336.218 28.6992 336.218 25.7466C336.218 22.7054 335.79 20.5205 334.933 19.1918C334.077 17.8336 332.793 17.1545 331.08 17.1545Z" fill="#FAAD14"/>
<path d="M313.276 33.7173C313.689 33.5697 314.088 33.5549 314.472 33.673C314.885 33.7616 315.195 34.0126 315.402 34.4259L315.889 35.2674C316.243 35.9465 316.332 36.6109 316.155 37.2604C316.007 37.8805 315.594 38.3381 314.915 38.6334C314.176 38.9287 313.409 39.1353 312.612 39.2535C311.844 39.4011 311.076 39.4749 310.309 39.4749C307.592 39.4454 305.555 38.6925 304.197 37.2161C302.868 35.7103 302.204 33.4959 302.204 30.5728V17.6846H300.255C299.664 17.6846 299.192 17.5074 298.838 17.1531C298.483 16.7988 298.306 16.3264 298.306 15.7359V14.7172C298.306 14.1267 298.483 13.6543 298.838 13.3C299.192 12.9456 299.664 12.7685 300.255 12.7685H302.204V9.8454C302.204 9.01867 302.455 8.32481 302.957 7.76381C303.488 7.17329 304.182 6.83373 305.038 6.74516L305.88 6.61229C306.854 6.49418 307.636 6.70087 308.227 7.23234C308.847 7.76381 309.157 8.51673 309.157 9.49109V12.7685H312.656C313.394 12.7685 313.955 13.0047 314.339 13.4771C314.752 13.92 314.915 14.4958 314.826 15.2044C314.708 15.9426 314.383 16.5478 313.852 17.0203C313.35 17.4632 312.715 17.6846 311.947 17.6846H309.157V30.3956C309.157 31.6948 309.364 32.6101 309.777 33.1415C310.22 33.673 310.87 33.9387 311.726 33.9387C311.962 33.9387 312.213 33.924 312.479 33.8945C312.744 33.8354 313.01 33.7764 313.276 33.7173Z" fill="#FAAD14"/>
<path d="M294.586 31.5042C294.586 32.0062 294.615 32.449 294.674 32.8329C294.763 33.2167 294.896 33.5267 295.073 33.763C295.339 34.2059 295.575 34.6635 295.782 35.1359C295.988 35.6083 296.003 36.1546 295.826 36.7746L295.737 37.0847C295.501 37.7638 295.102 38.2952 294.541 38.6791C293.98 39.0924 293.346 39.181 292.637 38.9448C291.81 38.7086 291.087 38.31 290.467 37.749C289.876 37.2175 289.389 36.5089 289.005 35.6231C288.09 37.0404 286.938 38.0295 285.551 38.5905C284.193 39.181 282.746 39.4763 281.21 39.4763C279.911 39.4763 278.73 39.2844 277.667 38.9005C276.634 38.5167 275.748 37.9704 275.01 37.2618C274.301 36.5237 273.755 35.6674 273.371 34.693C272.987 33.7187 272.795 32.641 272.795 31.4599C272.795 28.6254 273.814 26.4552 275.851 24.9494C277.918 23.4436 280.886 22.6907 284.754 22.6907H287.765V21.4506C287.765 19.7971 287.396 18.6751 286.658 18.0846C285.92 17.4645 284.739 17.1545 283.115 17.1545C282.524 17.1545 281.845 17.2135 281.078 17.3317C280.339 17.4202 279.527 17.5974 278.642 17.8631C277.933 18.0403 277.283 17.9812 276.693 17.686C276.102 17.3612 275.689 16.8592 275.453 16.1801C275.217 15.4715 275.231 14.8367 275.497 14.2757C275.763 13.6852 276.265 13.2718 277.003 13.0356C278.273 12.6813 279.513 12.4155 280.723 12.2384C281.934 12.0612 283.115 11.9727 284.266 11.9727C287.898 11.9727 290.526 12.7551 292.15 14.32C293.774 15.8553 294.586 18.0846 294.586 21.0077V31.5042ZM283.159 34.4716C284.133 34.4716 285.004 34.2354 285.772 33.763C286.569 33.261 287.234 32.5376 287.765 31.5928V26.6324H285.462C283.572 26.6324 282.155 26.9867 281.21 27.6953C280.266 28.3744 279.793 29.4374 279.793 30.8842C279.793 32.0062 280.074 32.8919 280.635 33.5415C281.225 34.1616 282.067 34.4716 283.159 34.4716Z" fill="#FAAD14"/>
<path d="M267.924 12.7695C268.987 12.7695 269.754 13.0796 270.227 13.6996C270.699 14.3197 270.773 15.1464 270.448 16.1798L263.893 36.5086C263.657 37.1877 263.259 37.7191 262.698 38.103C262.166 38.5163 261.561 38.723 260.882 38.723H257.25C256.541 38.723 255.907 38.5163 255.346 38.103C254.814 37.7191 254.43 37.2024 254.194 36.5529L247.639 16.357C247.255 15.294 247.3 14.4378 247.772 13.7882C248.244 13.1091 249.056 12.7695 250.208 12.7695H251.492C252.231 12.7695 252.88 12.991 253.441 13.4339C254.002 13.8768 254.371 14.4525 254.548 15.1611L259.154 33.2754L263.76 15.1611C263.938 14.4525 264.307 13.8768 264.868 13.4339C265.429 12.991 266.078 12.7695 266.816 12.7695H267.924Z" fill="#FAAD14"/>
<path d="M232.271 11.9727C234.19 11.9727 235.917 12.2974 237.453 12.947C239.018 13.5671 240.317 14.4676 241.35 15.6487C242.413 16.8002 243.225 18.2322 243.786 19.9447C244.377 21.6572 244.672 23.5912 244.672 25.7466C244.672 27.7839 244.377 29.6588 243.786 31.3713C243.225 33.0543 242.413 34.5011 241.35 35.7117C240.317 36.8927 239.018 37.808 237.453 38.4576C235.917 39.1367 234.175 39.4763 232.227 39.4763C230.278 39.4763 228.536 39.1662 227 38.5462C225.495 37.9261 224.195 37.0256 223.103 35.8446C222.04 34.6635 221.213 33.2315 220.623 31.5485C220.062 29.836 219.781 27.902 219.781 25.7466C219.781 23.6503 220.062 21.7606 220.623 20.0776C221.213 18.3946 222.04 16.9626 223.103 15.7815C224.166 14.571 225.465 13.6409 227 12.9913C228.565 12.3122 230.322 11.9727 232.271 11.9727ZM232.271 17.1545C230.529 17.1545 229.215 17.8336 228.329 19.1918C227.473 20.55 227.045 22.7349 227.045 25.7466C227.045 28.7583 227.473 30.9432 228.329 32.3014C229.185 33.6301 230.484 34.2944 232.227 34.2944C233.939 34.2944 235.223 33.6153 236.08 32.2571C236.965 30.8694 237.408 28.6992 237.408 25.7466C237.408 22.7054 236.98 20.5205 236.124 19.1918C235.268 17.8336 233.983 17.1545 232.271 17.1545Z" fill="#FAAD14"/>
<path d="M211.234 4.8418C212.208 4.8418 212.976 5.13706 213.537 5.72758C214.098 6.28858 214.378 7.0415 214.378 7.98633V35.5342C214.378 36.5086 214.098 37.2763 213.537 37.8373C212.976 38.4278 212.208 38.7231 211.234 38.7231H207.248C206.598 38.7231 205.993 38.5311 205.432 38.1473C204.9 37.793 204.516 37.3206 204.28 36.73L194.359 11.7952C194.566 13.3601 194.773 15.2498 194.979 17.4642C195.186 19.6787 195.289 22.3656 195.289 25.5249V35.5342C195.289 36.5086 194.994 37.2763 194.404 37.8373C193.843 38.4278 193.09 38.7231 192.145 38.7231H192.012C191.038 38.7231 190.255 38.4278 189.665 37.8373C189.104 37.2763 188.823 36.5086 188.823 35.5342V7.98633C188.823 7.0415 189.104 6.28858 189.665 5.72758C190.255 5.13706 191.038 4.8418 192.012 4.8418H195.777C196.397 4.8418 196.972 5.01895 197.504 5.37327C198.065 5.72758 198.464 6.21476 198.7 6.83481L208.886 31.7697C208.768 31.2087 208.65 30.5 208.532 29.6438C208.414 28.758 208.311 27.7984 208.222 26.765C208.133 25.7316 208.045 24.6243 207.956 23.4433C207.897 22.2327 207.868 20.9926 207.868 19.723V7.98633C207.868 7.0415 208.148 6.28858 208.709 5.72758C209.3 5.13706 210.082 4.8418 211.056 4.8418H211.234Z" fill="#FAAD14"/>
<path d="M174.872 11.9727C177.175 11.9727 178.961 12.6665 180.231 14.0543C181.53 15.442 182.18 17.3612 182.18 19.8119V35.5345C182.18 36.5089 181.884 37.2766 181.294 37.8376C180.733 38.4281 179.98 38.7234 179.035 38.7234H178.415C177.47 38.7234 176.703 38.4281 176.112 37.8376C175.551 37.2766 175.271 36.5089 175.271 35.5345V20.9634C175.271 19.4575 175.005 18.4536 174.473 17.9517C173.971 17.4202 173.278 17.1545 172.392 17.1545C171.388 17.1545 170.473 17.4793 169.646 18.1289C168.849 18.7489 168.081 19.6347 167.343 20.7862V35.5345C167.343 36.5089 167.062 37.2766 166.501 37.8376C165.94 38.4281 165.173 38.7234 164.198 38.7234H163.534C162.589 38.7234 161.821 38.4281 161.231 37.8376C160.67 37.2766 160.389 36.5089 160.389 35.5345V15.8258C160.389 14.9105 160.67 14.1724 161.231 13.6114C161.792 13.0504 162.515 12.7699 163.401 12.7699H164.818C165.291 12.7699 165.704 12.9175 166.058 13.2128C166.413 13.4785 166.634 13.8771 166.723 14.4086L166.988 16.0473C168.051 14.7481 169.218 13.7442 170.487 13.0356C171.787 12.327 173.248 11.9727 174.872 11.9727Z" fill="#00000E"/>
<path d="M153.569 12.3262C154.632 12.3262 155.399 12.6214 155.872 13.212C156.344 13.773 156.418 14.5259 156.093 15.4707L148.786 36.2866C147.9 38.9145 146.556 41.0404 144.755 42.6643C142.954 44.3178 140.489 45.4102 137.359 45.9417C136.562 46.0893 135.897 45.9565 135.366 45.5431C134.864 45.1593 134.554 44.613 134.436 43.9044C134.288 43.1958 134.406 42.5905 134.79 42.0885C135.203 41.6161 135.779 41.3061 136.517 41.1585C138.2 40.7746 139.455 40.1841 140.282 39.3869C141.109 38.6192 141.803 37.571 142.364 36.2424H141.212C140.858 36.2424 140.533 36.1538 140.238 35.9766C139.942 35.7699 139.736 35.519 139.618 35.2237L133.019 15.5593C132.664 14.6144 132.723 13.8468 133.196 13.2562C133.698 12.6362 134.51 12.3262 135.632 12.3262H136.827C137.566 12.3262 138.215 12.5329 138.776 12.9462C139.337 13.3301 139.706 13.8763 139.883 14.5849L144.489 32.1235L149.361 14.5406C149.538 13.8615 149.908 13.3301 150.469 12.9462C151.03 12.5329 151.679 12.3262 152.417 12.3262H153.569Z" fill="#00000E"/>
<path d="M118.226 4C120.204 4 121.946 4.23621 123.452 4.70863C124.958 5.15152 126.331 5.8011 127.571 6.65735C128.25 7.07072 128.604 7.63172 128.634 8.34034C128.693 9.01945 128.472 9.66902 127.97 10.2891C127.438 10.8796 126.833 11.2044 126.154 11.2634C125.475 11.3225 124.781 11.1749 124.072 10.8205C123.216 10.3481 122.345 9.99381 121.459 9.7576C120.603 9.52139 119.702 9.40329 118.758 9.40329C117.252 9.40329 116.041 9.71331 115.126 10.3334C114.21 10.9534 113.753 11.8687 113.753 13.0793C113.753 13.6698 113.841 14.1865 114.019 14.6294C114.225 15.0723 114.58 15.4857 115.082 15.8695C115.613 16.2534 116.322 16.6224 117.207 16.9767C118.093 17.3015 119.23 17.6854 120.618 18.1283C122.153 18.6007 123.526 19.1469 124.737 19.767C125.977 20.3575 127.025 21.0661 127.881 21.8929C128.767 22.7196 129.446 23.7087 129.918 24.8602C130.391 25.9822 130.627 27.3404 130.627 28.9348C130.627 30.4702 130.332 31.8875 129.741 33.1866C129.151 34.4858 128.28 35.6077 127.128 36.5526C126.006 37.4679 124.633 38.1765 123.009 38.6785C121.415 39.2099 119.584 39.4757 117.517 39.4757C115.303 39.4757 113.325 39.1952 111.583 38.6342C109.87 38.1027 108.35 37.3941 107.021 36.5083C106.371 36.0359 106.032 35.4454 106.002 34.7367C105.973 33.9986 106.238 33.3342 106.799 32.7437C107.36 32.1237 107.995 31.7841 108.704 31.7251C109.442 31.666 110.151 31.8432 110.83 32.2565C111.804 32.8471 112.808 33.2899 113.841 33.5852C114.904 33.8805 116.056 34.0281 117.296 34.0281C119.038 34.0281 120.441 33.6443 121.503 32.8766C122.596 32.0794 123.142 30.9279 123.142 29.422C123.142 28.7134 123.039 28.1081 122.832 27.6062C122.655 27.1042 122.315 26.6613 121.813 26.2775C121.341 25.8641 120.691 25.4803 119.865 25.126C119.038 24.7421 117.975 24.3583 116.676 23.9744C114.816 23.3839 113.236 22.7491 111.937 22.07C110.638 21.3909 109.575 20.638 108.748 19.8113C107.921 18.9845 107.316 18.0545 106.932 17.021C106.548 15.9876 106.357 14.8361 106.357 13.5665C106.357 12.1197 106.652 10.8205 107.242 9.66902C107.833 8.48798 108.66 7.48409 109.723 6.65735C110.785 5.8011 112.04 5.15152 113.487 4.70863C114.934 4.23621 116.514 4 118.226 4Z" fill="#00000E"/>
</svg>
